P2
16 16
255
0
17
34
51
68
85
102
119
136
153
170
187
204
221
238
255
17
33
49
65
80
96
112
128
144
160
176
192
207
223
239
255
34
49
63
78
93
108
122
137
152
167
181
196
211
226
240
255
51
65
78
92
105
119
133
146
160
173
187
201
214
228
241
255
68
80
93
105
118
130
143
155
168
180
193
205
218
230
243
255
85
96
108
119
130
142
153
164
176
187
198
210
221
232
244
255
102
112
122
133
143
153
163
173
184
194
204
214
224
235
245
255
119
128
137
146
155
164
173
182
192
201
210
219
228
237
246
255
136
144
152
160
168
176
184
192
199
207
215
223
231
239
247
255
153
160
167
173
180
187
194
201
207
214
221
228
235
241
248
255
170
176
181
187
193
198
204
210
215
221
227
232
238
244
249
255
187
192
196
201
205
210
214
219
223
228
232
237
241
246
250
255
204
207
211
214
218
221
224
228
231
235
238
241
245
248
252
255
221
223
226
228
230
232
235
237
239
241
244
246
248
250
253
255
238
239
240
241
243
244
245
246
247
248
249
250
252
253
254
255
255
255
255
255
255
255
255
255
255
255
255
255
255
255
255
255
