P3
16 16
255
0
0
0
17
0
0
34
0
0
51
0
0
68
0
0
85
0
0
102
0
0
119
0
0
136
0
0
153
0
0
170
0
0
187
0
0
204
0
0
221
0
0
238
0
0
255
0
0
0
17
0
17
17
1
34
17
2
51
17
3
68
17
5
85
17
6
102
17
7
119
17
8
136
17
9
153
17
10
170
17
11
187
17
12
204
17
14
221
17
15
238
17
16
255
17
17
0
34
0
17
34
2
34
34
5
51
34
7
68
34
9
85
34
11
102
34
14
119
34
16
136
34
18
153
34
20
170
34
23
187
34
25
204
34
27
221
34
29
238
34
32
255
34
34
0
51
0
17
51
3
34
51
7
51
51
10
68
51
14
85
51
17
102
51
20
119
51
24
136
51
27
153
51
31
170
51
34
187
51
37
204
51
41
221
51
44
238
51
48
255
51
51
0
68
0
17
68
5
34
68
9
51
68
14
68
68
18
85
68
23
102
68
27
119
68
32
136
68
36
153
68
41
170
68
45
187
68
50
204
68
54
221
68
59
238
68
63
255
68
68
0
85
0
17
85
6
34
85
11
51
85
17
68
85
23
85
85
28
102
85
34
119
85
40
136
85
45
153
85
51
170
85
57
187
85
62
204
85
68
221
85
74
238
85
79
255
85
85
0
102
0
17
102
7
34
102
14
51
102
20
68
102
27
85
102
34
102
102
41
119
102
48
136
102
54
153
102
61
170
102
68
187
102
75
204
102
82
221
102
88
238
102
95
255
102
102
0
119
0
17
119
8
34
119
16
51
119
24
68
119
32
85
119
40
102
119
48
119
119
56
136
119
63
153
119
71
170
119
79
187
119
87
204
119
95
221
119
103
238
119
111
255
119
119
0
136
0
17
136
9
34
136
18
51
136
27
68
136
36
85
136
45
102
136
54
119
136
63
136
136
73
153
136
82
170
136
91
187
136
100
204
136
109
221
136
118
238
136
127
255
136
136
0
153
0
17
153
10
34
153
20
51
153
31
68
153
41
85
153
51
102
153
61
119
153
71
136
153
82
153
153
92
170
153
102
187
153
112
204
153
122
221
153
133
238
153
143
255
153
153
0
170
0
17
170
11
34
170
23
51
170
34
68
170
45
85
170
57
102
170
68
119
170
79
136
170
91
153
170
102
170
170
113
187
170
125
204
170
136
221
170
147
238
170
159
255
170
170
0
187
0
17
187
12
34
187
25
51
187
37
68
187
50
85
187
62
102
187
75
119
187
87
136
187
100
153
187
112
170
187
125
187
187
137
204
187
150
221
187
162
238
187
175
255
187
187
0
204
0
17
204
14
34
204
27
51
204
41
68
204
54
85
204
68
102
204
82
119
204
95
136
204
109
153
204
122
170
204
136
187
204
150
204
204
163
221
204
177
238
204
190
255
204
204
0
221
0
17
221
15
34
221
29
51
221
44
68
221
59
85
221
74
102
221
88
119
221
103
136
221
118
153
221
133
170
221
147
187
221
162
204
221
177
221
221
192
238
221
206
255
221
221
0
238
0
17
238
16
34
238
32
51
238
48
68
238
63
85
238
79
102
238
95
119
238
111
136
238
127
153
238
143
170
238
159
187
238
175
204
238
190
221
238
206
238
238
222
255
238
238
0
255
0
17
255
17
34
255
34
51
255
51
68
255
68
85
255
85
102
255
102
119
255
119
136
255
136
153
255
153
170
255
170
187
255
187
204
255
204
221
255
221
238
255
238
255
255
255
